<svg xmlns="http://www.w3.org/2000/svg" viewBox="0 0 5908.8 1099.2" width="5909" height="1099"><g transform="translate(60 60) scale(4.896)"><g stroke="#17130F" stroke-width="4.2" stroke-linecap="round"><line x1="100" y1="70" x2="100" y2="45.5"/><line x1="117.63" y1="75.73" x2="132.03" y2="55.91"/><line x1="128.53" y1="90.73" x2="151.83" y2="83.16"/><line x1="128.53" y1="109.27" x2="151.83" y2="116.84"/><line x1="117.63" y1="124.27" x2="132.03" y2="144.09"/><line x1="100" y1="130" x2="100" y2="154.5"/><line x1="82.37" y1="124.27" x2="67.97" y2="144.09"/><line x1="71.47" y1="109.27" x2="48.17" y2="116.84"/><line x1="71.47" y1="90.73" x2="48.17" y2="83.16"/><line x1="82.37" y1="75.73" x2="67.97" y2="55.91"/></g><g fill="#17130F"><circle cx="100" cy="28" r="10.5"/><circle cx="142.32" cy="41.75" r="10.5"/><circle cx="168.48" cy="77.75" r="10.5"/><circle cx="168.48" cy="122.25" r="10.5"/><circle cx="142.32" cy="158.25" r="10.5"/><circle cx="100" cy="172" r="10.5"/><circle cx="57.68" cy="158.25" r="10.5"/><circle cx="31.52" cy="122.25" r="10.5"/><circle cx="31.52" cy="77.75" r="10.5"/><circle cx="57.68" cy="41.75" r="10.5"/></g><circle cx="100" cy="100" r="18" fill="#C0442A"/></g><g transform="translate(1255.2 909.6) scale(1)"><path d="M382 0L382 -109L391 -107Q381 -53 335.5 -21.5Q290 10 228 10Q166 10 120 -22Q74 -54 49.5 -112.5Q25 -171 25 -252Q25 -333 51 -393.5Q77 -454 123.5 -487Q170 -520 233 -520Q296 -520 339 -487.5Q382 -455 390 -398L378 -397L378 -720L524 -720L524 0ZM279 -106Q325 -106 352.5 -144.5Q380 -183 380 -256Q380 -329 352.5 -366Q325 -403 278 -403Q232 -403 204 -365Q176 -327 176 -254Q176 -180 204 -143Q232 -106 279 -106ZM621.33 0L621.33 -510L767.33 -510L767.33 0ZM1137.33 0Q1131.33 -20 1128.83 -44Q1126.33 -68 1126.33 -99L1122.33 -99L1122.33 -349Q1122.33 -381 1105.33 -398Q1088.33 -415 1055.33 -415Q1022.33 -415 1003.83 -401Q985.33 -387 980.33 -359L844.33 -359Q852.33 -429 908.33 -474.5Q964.33 -520 1061.33 -520Q1161.33 -520 1213.83 -473.5Q1266.33 -427 1266.33 -340L1266.33 -99Q1266.33 -75 1269.33 -50.5Q1272.33 -26 1280.33 0ZM978.33 10Q912.33 10 871.83 -27Q831.33 -64 831.33 -127Q831.33 -194 875.33 -235Q919.33 -276 1004.33 -295L1149.33 -332L1149.33 -240L1047.33 -217Q1009.33 -207 992.83 -190Q976.33 -173 976.33 -146Q976.33 -122 991.83 -109Q1007.33 -96 1033.33 -96Q1070.33 -96 1096.33 -116.5Q1122.33 -137 1122.33 -166L1135.33 -94Q1115.33 -41 1075.33 -15.5Q1035.33 10 978.33 10ZM1359.33 0L1359.33 -720L1505.33 -720L1505.33 0Z" fill="#17130F"/><circle cx="694.3" cy="-626.6" r="93.4" fill="#C0442A"/></g><path transform="translate(2958.9 909.6)" d="M94.74 6.61Q55.81 6.61 32.31 -23.87Q8.81 -54.35 8.81 -110.16Q8.81 -158.63 26.07 -206.37Q43.33 -254.1 71.24 -293.03Q99.14 -331.95 132.56 -355.45Q165.97 -378.95 197.55 -378.95Q232.07 -378.95 247.13 -362.43Q262.18 -345.9 262.18 -318Q262.18 -284.95 239.05 -252.27Q215.91 -219.59 174.42 -193.88Q132.93 -168.18 77.11 -155.69Q60.96 -152.02 60.22 -137.33Q59.49 -132.19 59.49 -126.68Q59.49 -121.18 59.49 -116.04Q59.49 -74.17 73.81 -52.88Q88.13 -31.58 113.1 -31.58Q141 -31.58 167.08 -57.28Q193.15 -82.99 210.77 -129.99Q212.98 -136.6 219.59 -136.6Q223.99 -136.6 225.09 -132.93Q226.2 -129.25 224.73 -124.11Q201.23 -59.49 167.81 -26.44Q134.4 6.61 94.74 6.61ZM67.56 -183.6Q66.1 -178.46 69.4 -175.15Q72.71 -171.85 77.85 -173.32Q123.38 -185.8 154.22 -211.14Q185.07 -236.48 200.86 -268.06Q216.65 -299.64 216.65 -329.75Q216.65 -360.59 192.41 -360.59Q171.12 -360.59 146.15 -335.62Q121.18 -310.65 99.88 -270.26Q78.58 -229.87 67.56 -183.6ZM294.49 -9.55L364.26 -302.57Q367.93 -318.73 365.36 -327.91Q362.79 -337.09 351.78 -337.09Q338.56 -337.09 322.77 -317.63Q306.98 -298.17 287.15 -243.82Q284.21 -234.27 276.87 -234.27Q265.85 -234.27 270.99 -247.49Q287.15 -298.17 305.14 -326.81Q323.14 -355.45 341.5 -367.2Q359.86 -378.95 375.28 -378.95Q399.51 -378.95 409.8 -360.96Q420.08 -342.96 410.53 -301.84L392.17 -222.52Q391.44 -217.38 394.37 -216.65Q397.31 -215.91 399.51 -220.32Q428.16 -279.81 454.59 -314.69Q481.03 -349.57 504.53 -364.26Q528.03 -378.95 547.13 -378.95Q574.3 -378.95 586.79 -356.92Q599.27 -334.89 586.79 -289.35L530.97 -76.38Q525.83 -55.81 530.24 -45.53Q534.64 -35.25 546.39 -35.25Q561.08 -35.25 575.4 -54.71Q589.72 -74.17 605.15 -128.52Q607.35 -136.6 614.69 -136.6Q620.57 -136.6 621.67 -132.19Q622.77 -127.79 621.3 -121.91Q607.35 -71.97 591.19 -43.7Q575.04 -15.42 558.51 -4.41Q541.99 6.61 525.1 6.61Q498.66 6.61 485.44 -15.42Q472.22 -37.45 483.97 -83.72L540.52 -296.7Q548.6 -325.34 543.09 -336.36Q537.58 -347.37 527.3 -347.37Q511.14 -347.37 490.58 -327.18Q470.02 -306.98 448.72 -272.1Q427.42 -237.21 406.86 -193.15Q386.29 -149.08 369.77 -101.35Q353.25 -53.61 342.96 -8.08Q340.76 0 332.68 0L302.57 0Q292.29 0 294.49 -9.55ZM742.48 6.61Q702.09 6.61 675.65 -26.81Q649.21 -60.22 649.21 -112.36Q649.21 -161.57 665 -208.94Q680.79 -256.31 707.59 -294.86Q734.4 -333.42 767.08 -356.18Q799.76 -378.95 832.81 -378.95Q868.06 -378.95 892.3 -359.86Q895.97 -356.92 896.7 -355.08Q897.44 -353.25 895.97 -347.37L876.14 -251.16Q873.94 -240.88 866.59 -240.88Q858.51 -240.88 857.04 -251.9L853.37 -304.04Q851.17 -337.82 843.46 -348.11Q835.75 -358.39 821.06 -358.39Q800.5 -358.39 779.2 -338.19Q757.9 -318 739.91 -283.85Q721.92 -249.7 711.27 -208.2Q700.62 -166.71 700.62 -124.11Q700.62 -31.58 760.84 -31.58Q789.48 -31.58 812.61 -58.02Q835.75 -84.46 855.58 -140.27Q857.78 -147.61 865.86 -147.61Q870.26 -147.61 871 -144.31Q871.73 -141 869.53 -131.46Q862.19 -91.07 843.09 -60.22Q824 -29.38 797.93 -11.38Q771.85 6.61 742.48 6.61ZM980.42 6.61Q953.25 6.61 943.34 -17.99Q933.42 -42.6 944.44 -82.99L1002.46 -295.96Q1008.33 -317.26 1005.39 -329.01Q1002.46 -340.76 992.17 -340.76Q975.28 -340.76 958.02 -315.06Q940.77 -289.35 928.28 -243.82Q926.08 -235.74 918.73 -235.74Q908.45 -235.74 912.12 -250.43Q929.02 -312.12 956.56 -345.54Q984.1 -378.95 1017.14 -378.95Q1043.58 -378.95 1052.4 -354.72Q1061.21 -330.48 1049.46 -288.62L990.71 -75.64Q976.75 -24.97 1000.25 -24.97Q1014.94 -24.97 1034.04 -44.8Q1053.13 -64.63 1074.06 -99.14Q1094.99 -133.66 1115.55 -177.72Q1136.12 -221.79 1153.01 -270.26Q1169.9 -318.73 1180.92 -366.47Q1183.12 -374.54 1191.2 -374.54L1220.57 -374.54Q1230.85 -374.54 1228.65 -365L1159.62 -69.77Q1151.54 -35.25 1172.1 -35.25Q1202.95 -35.25 1236.73 -128.52Q1239.67 -138.07 1247.01 -138.07Q1251.42 -138.07 1253.25 -134.4Q1255.09 -130.72 1252.89 -124.85Q1233.06 -62.42 1205.88 -27.91Q1178.71 6.61 1148.6 6.61Q1095.72 6.61 1113.35 -70.5L1132.44 -152.02Q1133.91 -157.16 1130.61 -157.9Q1127.3 -158.63 1125.1 -154.22Q1082.51 -66.1 1046.52 -29.74Q1010.53 6.61 980.42 6.61ZM1363.78 6.61Q1324.86 6.61 1301.36 -23.87Q1277.86 -54.35 1277.86 -110.16Q1277.86 -158.63 1295.11 -206.37Q1312.37 -254.1 1340.28 -293.03Q1368.19 -331.95 1401.6 -355.45Q1435.02 -378.95 1466.6 -378.95Q1501.11 -378.95 1516.17 -362.43Q1531.22 -345.9 1531.22 -318Q1531.22 -284.95 1508.09 -252.27Q1484.96 -219.59 1443.46 -193.88Q1401.97 -168.18 1346.16 -155.69Q1330 -152.02 1329.26 -137.33Q1328.53 -132.19 1328.53 -126.68Q1328.53 -121.18 1328.53 -116.04Q1328.53 -74.17 1342.85 -52.88Q1357.17 -31.58 1382.14 -31.58Q1410.05 -31.58 1436.12 -57.28Q1462.19 -82.99 1479.82 -129.99Q1482.02 -136.6 1488.63 -136.6Q1493.04 -136.6 1494.14 -132.93Q1495.24 -129.25 1493.77 -124.11Q1470.27 -59.49 1436.85 -26.44Q1403.44 6.61 1363.78 6.61ZM1336.61 -183.6Q1335.14 -178.46 1338.44 -175.15Q1341.75 -171.85 1346.89 -173.32Q1392.42 -185.8 1423.27 -211.14Q1454.11 -236.48 1469.9 -268.06Q1485.69 -299.64 1485.69 -329.75Q1485.69 -360.59 1461.46 -360.59Q1440.16 -360.59 1415.19 -335.62Q1390.22 -310.65 1368.92 -270.26Q1347.62 -229.87 1336.61 -183.6ZM1563.54 -9.55L1633.31 -302.57Q1636.98 -318.73 1634.41 -327.91Q1631.84 -337.09 1620.82 -337.09Q1607.6 -337.09 1591.81 -317.63Q1576.02 -298.17 1556.19 -243.82Q1553.26 -234.27 1545.91 -234.27Q1534.9 -234.27 1540.04 -247.49Q1556.19 -298.17 1574.19 -326.81Q1592.18 -355.45 1610.54 -367.2Q1628.9 -378.95 1644.32 -378.95Q1668.56 -378.95 1678.84 -360.96Q1689.12 -342.96 1679.57 -301.84L1661.21 -222.52Q1660.48 -217.38 1663.42 -216.65Q1666.35 -215.91 1668.56 -220.32Q1697.2 -279.81 1723.64 -314.69Q1750.08 -349.57 1773.58 -364.26Q1797.08 -378.95 1816.17 -378.95Q1843.34 -378.95 1855.83 -356.92Q1868.31 -334.89 1855.83 -289.35L1800.01 -76.38Q1794.87 -55.81 1799.28 -45.53Q1803.69 -35.25 1815.44 -35.25Q1830.12 -35.25 1844.45 -54.71Q1858.77 -74.17 1874.19 -128.52Q1876.39 -136.6 1883.74 -136.6Q1889.61 -136.6 1890.71 -132.19Q1891.81 -127.79 1890.35 -121.91Q1876.39 -71.97 1860.24 -43.7Q1844.08 -15.42 1827.55 -4.41Q1811.03 6.61 1794.14 6.61Q1767.7 6.61 1754.48 -15.42Q1741.26 -37.45 1753.01 -83.72L1809.56 -296.7Q1817.64 -325.34 1812.13 -336.36Q1806.62 -347.37 1796.34 -347.37Q1780.19 -347.37 1759.62 -327.18Q1739.06 -306.98 1717.76 -272.1Q1696.46 -237.21 1675.9 -193.15Q1655.34 -149.08 1638.81 -101.35Q1622.29 -53.61 1612.01 -8.08Q1609.8 0 1601.73 0L1571.62 0Q1561.33 0 1563.54 -9.55ZM1982.15 6.61Q1957.18 6.61 1943.22 -13.22Q1929.27 -33.05 1938.82 -77.11L1999.77 -342.96Q2001.97 -353.98 1990.96 -353.98L1963.05 -353.98Q1952.77 -353.98 1952.77 -363.53Q1952.77 -368.67 1956.44 -371.61Q1960.11 -374.54 1965.25 -374.54L1991.69 -374.54Q2008.58 -374.54 2011.52 -389.97L2029.15 -468.55Q2031.35 -476.63 2039.43 -476.63L2069.54 -476.63Q2079.82 -476.63 2077.62 -467.08L2059.26 -385.56Q2057.05 -374.54 2068.07 -374.54L2109.93 -374.54Q2122.42 -374.54 2122.42 -365Q2122.42 -353.98 2106.99 -353.98L2067.34 -353.98Q2051.18 -353.98 2047.51 -338.56L1985.82 -69.77Q1982.15 -53.61 1986.92 -44.43Q1991.69 -35.25 2003.44 -35.25Q2020.33 -35.25 2034.66 -54.35Q2048.98 -73.44 2065.13 -127.05Q2068.07 -136.6 2074.68 -136.6Q2079.82 -136.6 2081.29 -132.19Q2082.76 -127.79 2079.09 -116.04Q2065.13 -66.1 2048.61 -39.66Q2032.08 -13.22 2015.19 -3.3Q1998.3 6.61 1982.15 6.61ZM2154 0Q2143.71 0 2145.92 -9.55L2215.68 -302.57Q2219.36 -318.73 2216.79 -327.91Q2214.22 -337.09 2203.2 -337.09Q2189.98 -337.09 2174.19 -317.63Q2158.4 -298.17 2138.57 -243.82Q2135.64 -234.27 2128.29 -234.27Q2117.28 -234.27 2122.42 -247.49Q2138.57 -298.17 2156.57 -326.81Q2174.56 -355.45 2192.92 -367.2Q2211.28 -378.95 2226.7 -378.95Q2250.94 -378.95 2261.22 -360.96Q2271.5 -342.96 2261.95 -301.84L2253.87 -267.32Q2253.14 -262.18 2256.08 -261.45Q2259.01 -260.71 2261.22 -265.12Q2289.12 -329.01 2311.89 -353.98Q2334.66 -378.95 2364.03 -378.95Q2383.86 -378.95 2393.78 -368.3Q2403.69 -357.65 2403.69 -339.29Q2403.69 -320.93 2394.88 -309.92Q2386.07 -298.9 2372.11 -298.9Q2360.36 -298.9 2355.22 -304.78Q2350.08 -310.65 2347.51 -318.36Q2344.94 -326.07 2342 -331.95Q2339.06 -337.82 2332.45 -337.82Q2321.44 -337.82 2303.81 -309.92Q2286.19 -282.01 2265.99 -234.64Q2245.8 -187.27 2227.07 -128.52Q2208.34 -69.77 2194.39 -8.08Q2192.18 0 2184.11 0ZM2477.13 6.61Q2431.6 6.61 2405.16 -31.21Q2378.72 -69.03 2378.72 -133.66Q2378.72 -181.4 2394.14 -225.46Q2409.57 -269.52 2434.9 -304.04Q2460.24 -338.56 2491.45 -358.75Q2522.66 -378.95 2554.24 -378.95Q2599.78 -378.95 2626.21 -341.5Q2652.65 -304.04 2652.65 -238.68Q2652.65 -190.94 2637.23 -146.88Q2621.81 -102.82 2596.47 -68.3Q2571.13 -33.78 2539.92 -13.59Q2508.71 6.61 2477.13 6.61ZM2475.66 -11.02Q2499.16 -11.02 2521.56 -33.78Q2543.96 -56.55 2562.32 -94Q2580.68 -131.46 2591.7 -177.36Q2602.71 -223.26 2602.71 -269.52Q2602.71 -361.32 2554.98 -361.32Q2532.21 -361.32 2509.44 -338.93Q2486.68 -316.53 2468.69 -279.07Q2450.69 -241.62 2439.68 -195.72Q2428.66 -149.82 2428.66 -103.55Q2428.66 -11.02 2475.66 -11.02ZM2753.27 6.61Q2729.03 6.61 2702.22 -0.73Q2675.42 -8.08 2661.47 -19.09Q2656.32 -23.5 2657.06 -32.31L2673.22 -128.52Q2674.68 -138.07 2682.03 -138.07Q2690.11 -138.07 2690.11 -127.79L2691.58 -92.53Q2693.04 -50.67 2711.77 -31.21Q2730.5 -11.75 2757.67 -11.75Q2781.17 -11.75 2798.06 -26.81Q2814.96 -41.86 2814.96 -71.24Q2814.96 -88.13 2809.81 -102.45Q2804.67 -116.77 2793.66 -133.29Q2782.64 -149.82 2763.55 -173.32Q2738.58 -205.63 2726.46 -228.77Q2714.34 -251.9 2714.34 -276.87Q2714.34 -323.14 2743.35 -351.04Q2772.36 -378.95 2817.16 -378.95Q2836.99 -378.95 2855.71 -373.08Q2874.44 -367.2 2886.93 -355.45Q2893.54 -350.31 2891.33 -342.23L2870.77 -243.82Q2868.57 -234.27 2861.96 -234.27Q2855.35 -234.27 2853.88 -244.56L2851.68 -279.81Q2848.74 -323.87 2840.29 -342.96Q2831.85 -362.06 2805.41 -362.06Q2781.91 -362.06 2767.22 -345.9Q2752.53 -329.75 2752.53 -306.98Q2752.53 -282.74 2765.75 -262.55Q2778.97 -242.35 2801.74 -211.51Q2831.85 -171.85 2842.5 -148.35Q2853.14 -124.85 2853.14 -100.61Q2853.14 -69.77 2839.56 -45.53Q2825.97 -21.3 2803.2 -7.34Q2780.44 6.61 2753.27 6.61Z" fill="#C0442A"/></svg>