<svg xmlns="http://www.w3.org/2000/svg" viewBox="0 0 200 200"><rect width="200" height="200" rx="36" fill="#1a1613"/><g stroke="#e8dfd0" stroke-width="7" stroke-linecap="round"><line x1="100" y1="100" x2="100" y2="30"/><line x1="100" y1="100" x2="141.1" y2="43.4"/><line x1="100" y1="100" x2="166.6" y2="78.4"/><line x1="100" y1="100" x2="166.6" y2="121.6"/><line x1="100" y1="100" x2="141.1" y2="156.6"/><line x1="100" y1="100" x2="100" y2="170"/><line x1="100" y1="100" x2="58.9" y2="156.6"/><line x1="100" y1="100" x2="33.4" y2="121.6"/><line x1="100" y1="100" x2="33.4" y2="78.4"/><line x1="100" y1="100" x2="58.9" y2="43.4"/></g><g fill="#e8dfd0"><circle cx="100" cy="30" r="15"/><circle cx="141.1" cy="43.4" r="15"/><circle cx="166.6" cy="78.4" r="15"/><circle cx="166.6" cy="121.6" r="15"/><circle cx="141.1" cy="156.6" r="15"/><circle cx="100" cy="170" r="15"/><circle cx="58.9" cy="156.6" r="15"/><circle cx="33.4" cy="121.6" r="15"/><circle cx="33.4" cy="78.4" r="15"/><circle cx="58.9" cy="43.4" r="15"/></g><circle cx="100" cy="100" r="27" fill="#c1502e" stroke="#e8dfd0" stroke-width="5"/></svg>
